# xmcd
#
# Track frame offsets:
#	150
#	11604
#	26558
#	40762
#	54273
#	69294
#	82434
#	95634
#	112982
#	127141
#	140992
#	157944
#	177037
#	192560
#	207985
#
# Disc length: 2951 seconds
#
# Revision: 0
# Processed by: cddbd v1.5.2PL0 Copyright (c) Steve Scherf et al.
# Submitted via: dBpowerAMP V4.0
#
DISCID=d40b850f
DTITLE=Four Chords Of Wood - Stokin' the Fire
DYEAR=2008
DGENRE=Stringband
TTITLE0=The Last time
TTITLE1=I hold you in my mind
TTITLE2=The road to Dawson
TTITLE3=Border bound
TTITLE4=shorty dunn
TTITLE5=my Baby's Eyes
TTITLE6=It's Heartbreak time
TTITLE7=That Old Esay Chair
TTITLE8=Sooke River
TTITLE9=Adeline
TTITLE10=Hey there Darlin'
TTITLE11=I miss her So
TTITLE12=Storm Front
TTITLE13=Flat Rock
TTITLE14=Flatpickin' Man
EXTD=
EXTT0=
EXTT1=
EXTT2=
EXTT3=
EXTT4=
EXTT5=
EXTT6=
EXTT7=
EXTT8=
EXTT9=
EXTT10=
EXTT11=
EXTT12=
EXTT13=
EXTT14=
PLAYORDER=
